<svg width="25" height="25" viewBox="0 0 25 25" fill="none" xmlns="http://www.w3.org/2000/svg">
<path fill-rule="evenodd" clip-rule="evenodd" d="M12.2144 0.123389C12.1337 0.19126 12.0538 0.310156 12.0368 0.387549C12.0198 0.46499 11.7562 2.15059 11.4509 4.1333L10.8959 7.73823L10.745 7.873C10.5844 8.01655 10.4122 8.04321 10.2385 7.95151C10.1798 7.92056 8.83545 6.94624 7.25098 5.78643C5.6665 4.62661 4.30942 3.63853 4.23525 3.59067C3.85317 3.34409 3.34448 3.85376 3.59116 4.23603C3.63877 4.30977 4.62661 5.6665 5.78643 7.25098C6.94624 8.83545 7.92056 10.1798 7.95151 10.2385C8.04321 10.4122 8.01655 10.5844 7.873 10.745L7.73823 10.8959L4.1333 11.4509C2.15059 11.7562 0.46499 12.0198 0.387549 12.0368C0.205225 12.0769 0 12.3221 0 12.5C0 12.6779 0.205225 12.9231 0.387549 12.9632C0.46499 12.9802 2.15059 13.2438 4.1333 13.5491L7.73823 14.1041L7.873 14.255C8.01655 14.4156 8.04321 14.5878 7.95151 14.7615C7.92056 14.8202 6.94624 16.1646 5.78643 17.749C4.62661 19.3335 3.63877 20.6902 3.59116 20.764C3.34448 21.1462 3.85317 21.6559 4.23525 21.4093C4.30942 21.3615 5.6665 20.3734 7.25098 19.2136C8.83545 18.0538 10.1798 17.0794 10.2385 17.0485C10.4122 16.9568 10.5844 16.9834 10.745 17.127L10.8959 17.2618L11.4509 20.8667C11.7562 22.8494 12.0198 24.535 12.0368 24.6124C12.0769 24.7948 12.3221 25 12.5 25C12.6779 25 12.9231 24.7948 12.9632 24.6124C12.9802 24.535 13.2438 22.8494 13.5491 20.8667L14.1041 17.2618L14.255 17.127C14.4156 16.9834 14.5878 16.9568 14.7615 17.0485C14.8202 17.0794 16.1646 18.0538 17.749 19.2136C19.3335 20.3734 20.6906 21.3615 20.7647 21.4093C21.1469 21.656 21.6556 21.1461 21.4087 20.764C21.3611 20.6902 20.3732 19.3335 19.2134 17.749C18.0536 16.1646 17.0793 14.8202 17.0484 14.7615C16.9568 14.5877 16.9835 14.4156 17.127 14.255L17.2618 14.1041L20.8667 13.5491C22.8494 13.2438 24.535 12.9802 24.6124 12.9632C24.7948 12.9231 25 12.6779 25 12.5C25 12.3221 24.7948 12.0769 24.6124 12.0368C24.535 12.0198 22.8494 11.7562 20.8667 11.4509L17.2618 10.8959L17.127 10.745C16.9693 10.5686 16.9551 10.3883 17.0824 10.1807C17.1318 10.1001 18.12 8.74287 19.2783 7.16455C20.4366 5.58628 21.4088 4.24912 21.4388 4.19312C21.6356 3.82539 21.118 3.36274 20.7647 3.59067C20.6906 3.63853 19.3335 4.62661 17.749 5.78643C16.1646 6.94624 14.8202 7.92056 14.7615 7.95151C14.5878 8.04321 14.4156 8.01655 14.255 7.873L14.1041 7.73823L13.5491 4.1333C13.2438 2.15059 12.9802 0.46499 12.9632 0.387549C12.9231 0.205225 12.6779 0 12.5 0C12.4226 0 12.296 0.0546875 12.2144 0.123389Z" fill="white"/>
</svg>
